<?xml version="1.0" encoding="utf-8"?>
<!-- Generator: Adobe Illustrator 27.3.1, SVG Export Plug-In . SVG Version: 6.00 Build 0)  -->
<svg version="1.1" id="레이어_1" xmlns="http://www.w3.org/2000/svg" xmlns:xlink="http://www.w3.org/1999/xlink" x="0px"
	 y="0px" viewBox="0 0 2500 2282" style="enable-background:new 0 0 2500 2282;" xml:space="preserve">
<style type="text/css">
	.st0{fill:#1266A9;}
</style>
<path class="st0" d="M443.8,1471.7c1.8,4,3.7,7.6,5.9,11.3c1,2.1,2.4,4.3,3.6,6.3c2,4,4.1,7.8,6.2,11.6l11.9,20.1
	c2.2,3.7,4.3,7.4,6.8,11c4.2,7.2,9.1,14.2,13.5,21.3c2,3,3.8,5.9,6,8.9c8.4,13,16,23.8,24.1,34.3c5.8,7.8,11.6,15.5,17.8,23.2
	c2.1,2.9,4.3,5.8,6.5,8.7l16.8,20.4c2.1,2.4,4.1,5.1,6.3,7.5c7.5,9,15.4,17.7,23.3,26.5c0,0.2,0.2,0.3,0.4,0.5
	c9.8,12.3,20.4,23.3,32,33l0.3,0.3c6.1,6.2,12.2,12.4,18.6,18.5l7.7,7.4c8.4,7.9,16.9,15.8,25.8,23.4c0.2,0,0.2,0.2,0.4,0.2l4.3,3.8
	c7.8,6.8,15.6,13.5,23.6,19.7l9.5,8c6.5,5.2,13.2,10,19.8,15.1l10.3,7.9c7.1,5.3,14.6,10.5,21.8,15.7c2.7,1.9,5.3,3.8,8.1,5.6
	l2.2,1.8l21.4,14l9.1,6.1c11.2,7.2,22.3,13.8,33.4,20.5c3.2,1.6,6.4,3.3,9.4,5.2c8.2,4.7,16.7,9.5,25,13.8c4.6,2.6,9.3,4.8,14,7.2
	c5.7,3.2,11.6,6.3,17.7,9.5c1.7,0.5,3,1.1,4.4,1.8l0.3-0.3c2.5,1.1,4.9,2.4,7.3,3.6c9.1,4.6,18.6,8.9,28.5,13.2
	c1.8,0.8,3.8,1.5,5.8,2.6c11,4.8,21.9,9.4,33.3,13.8c2.6,0.8,5.3,2.1,8,3c10.3,3.9,20.9,7.8,31.4,11.6l3.8,1.4
	c11.6,4,23.1,7.8,35,11.3c2.7,0.8,5.6,1.8,8.4,2.5c12.1,3.7,23.8,8,36.1,10.3c781.7,141.8,1008.9-467.7,1008.9-467.7
	c-190.9,247.3-529.6,312.5-850.3,239.9c-11.9-2.7-23.7-6.5-35.8-10c-17-4.8-33.8-10.1-50.5-15.9l7.2,2.2l-4.7-1.8
	c-10.3-3.5-20.3-7.4-30.4-11.3c-2.5-1.1-5-2-7.5-2.9l-0.8-0.2c-11.2-4.5-22.1-9.1-32.9-13.8c-2.4-0.8-4.3-1.8-6.7-2.7
	c-12.8-5.6-25.5-11.4-38-17.5l10.5,4.6c-2.7-1.2-5.4-2.5-8.1-4c-7.2-3.3-14.3-7.2-21.3-10.7c-5.3-2.5-10.6-5.2-15.8-8.1l1.5,0.8
	c-8.6-4.6-17.2-9.5-25.9-14.2c-2.6-1.8-5.6-3.3-8.5-5c-12.9-7.5-25.6-15.3-38.2-23.3l4.8,2.9c-3.2-2-6.4-4.1-9.4-6.3l0.5,0.3
	c-8.2-5-16.2-10.3-24-15.8c-2.6-1.7-4.9-3.5-7.6-5.3c-8.2-5.6-16.3-11.4-24.2-17.4l1.8,1.3c-3.2-2.6-6.6-5-10-7.5
	c-6.7-5.3-13.5-10.3-20.2-15.8l-9-7.2c-9.6-7.6-19-15.5-28.2-23.5l-0.1-0.1l-26.4-24l-7.6-7.2c-6.2-6.3-12.6-12.3-19-18.6l-7.4-7.6
	c-7.9-7.8-15.6-15.8-23.1-24l-0.5-0.5l-1.3-1.1c-8.1-8.8-16-17.8-23.8-26.9c-2.1-2.4-4-4.9-6.1-7.4l-17.3-20.9
	c-7.8-9.8-15.4-19.7-22.8-29.8l-3-4.3C500.6,1125,436.2,791.5,578.6,517.8l-125.7,159c-161.7,231.3-141.7,532-18,777.6
	C437.7,1460.4,440.8,1466,443.8,1471.7L443.8,1471.7z"/>
<path d="M986.3,1064.6l-1-1.5l-0.8-1.1L986.3,1064.6z"/>
<path class="st0" d="M1073.5,1238.4l6.8,6.8c8.7,8.4,17.6,16.5,26.6,24.7l1.1,1c9.1,8.1,19.4,16.5,30,24.7l1.6,1.2
	c2.6,1.8,4.8,3.8,7.3,5.6c10.7,8.2,21.4,16.1,32.6,23.9l1.1,0.7c4.7,3.4,9.7,6.5,15.1,9.9c2.1,1.4,4.6,3.2,6.8,4.6
	c8.1,5.2,16,10,24.1,14.9c1.3,0.5,2.4,1.2,3.7,1.8c6.8,4.2,14.3,8.2,21.5,11.9c2.5,1.5,4.9,2.7,7.5,4.1c5.1,2.5,10.1,5.2,15,7.8
	l2.4,1.1c10.3,5,20.8,9.7,31,14.4c2.6,1,4.8,1.8,7,2.9c8.4,3.7,17,7.2,25.5,10.3c3.8,1.3,7.4,2.8,11,4c7.8,2.9,15.9,5.6,23.6,8.2
	l10.7,3.4c11.1,3.4,22.4,7.9,34.2,9.7c603.7,99.4,743.4-363.1,743.4-363.1c-125.8,180.1-369.2,266-628.6,198.9
	c-12.9-3.3-25.8-6.9-38.5-11l4.3,1.2c-3.7-1-6.8-2.1-10.3-3.2c-7.9-2.7-16.1-5.4-23.7-8.2l-11-4.1c-8.5-3.4-17.2-6.6-25.5-10.3
	c-2.6-1.1-4.9-1.9-6.9-3c-10.7-4.8-21.4-9.5-31.8-14.5l-15.7-8.1l-9.1-4.6c-7-3.7-13.5-7.5-20.2-11.3c-1.7-0.8-3.4-1.7-4.9-2.7
	l0.2,0.1c-8.1-5-16.4-9.9-24.2-15c-2.6-1.4-4.9-3.2-7.4-4.7l-15.8-10.3c-11-7.6-21.7-15.8-32.6-23.7c-2.4-2.2-4.8-4-7.2-6
	c-114.1-89.3-204-211.2-246.7-349.4c-45-143.6-35.1-304.6,42.6-435.3l-95.5,134.5c-117.3,167.5-110.6,391.4-19.3,568.5
	c16.7,32.7,33.6,60.3,52.2,86.7c17.4,24.8,36.5,53.9,59.7,73.8C1055.5,1220.4,1064.3,1229.3,1073.5,1238.4L1073.5,1238.4z"/>
<path d="M417.5,1623.8l-0.4-0.6l-0.6-0.8L417.5,1623.8z M803.5,1554.8l0.9,0.6l0.2,0.3L803.5,1554.8z"/>
<path class="st0" d="M1376.8,336.4c-69.2,101-75.8,226.4-28.2,337.7c50.6,118.3,154,211.1,274.6,255.1c4.9,1.9,9.7,3.5,14.8,5.3
	l6.7,2.1c7,2.2,14.1,4.8,21.3,6.4c333.4,64,423.6-170.3,447.9-204.8c-79.4,113.4-212.5,140.6-375.8,101.1
	c-14.2-3.5-28.2-7.8-41.9-12.9l2.5,0.8c-17-5.9-33.7-12.7-49.9-20.5l2.9,1.3c-31.2-15.2-58-31.7-82.9-50.5
	C1423,647.1,1332.7,437,1428,265.9L1376.8,336.4z"/>
</svg>
